{"title":"Rico Love - Bitches Be Like [Music Video] 720p [Sbyky]","uid":10033154,"size":42776009,"categoryP":"video","categoryS":"music_videos","magnet":"?xt=urn:btih:36d0be4a6906311924a0bbc094748da7a173fd92&amp;dn=Rico+Love+-+Bitches+Be+Like+%5BMusic+Video%5D+720p+%5BSbyky%5D&amp;tr=udp%3A%2F%2Ftracker.openbittorrent.com%3A80&amp;tr=udp%3A%2F%2Fopen.demonii.com%3A1337&amp;tr=udp%3A%2F%2Ftracker.coppersurfer.tk%3A6969&amp;tr=udp%3A%2F%2Fexodus.desync.com%3A6969","seeders":1,"leechers":1,"uploader":"Sbyky","files":1,"time":1398363509,"description":"\n\nGeneral\nComplete name                            : Rico Love - Bitches Be Like [Music Video] 720p [Sbyky].MP4\nFormat                                   : MPEG-4\nFormat profile                           : Base Media\nCodec ID                                 : isom\nFile size                                : 40.8 MiB\nDuration                                 : 3mn 47s\nOverall bit rate mode                    : Variable\nOverall bit rate                         : 1 504 Kbps\nEncoded date                             : UTC 2014-04-08 19:47:04\nTagged date                              : UTC 2014-04-08 19:47:04\n\nVideo\nID                                       : 1\nFormat                                   : AVC\nFormat/Info                              : Advanced Video Codec\nFormat profile                           : &lt;a class=&quot;__cf_email__&quot; href=&quot;/cdn-cgi/l/email-protection&quot; data-cfemail=&quot;abe6cac2c5ebe798859a&quot;&gt;[email&amp;#160;protected]&lt;/a&gt;&lt;script cf-hash='f9e31' type=&quot;text/javascript&quot;&gt;\n/* &lt;![CDATA[ */!function(){try{var t=&quot;currentScript&quot;in document?document.currentScript:function(){for(var t=document.getElementsByTagName(&quot;script&quot;),e=t.length;e--;)if(t[e].getAttribute(&quot;cf-hash&quot;))return t[e]}();if(t&amp;&amp;t.previousSibling){var e,r,n,i,c=t.previousSibling,a=c.getAttribute(&quot;data-cfemail&quot;);if(a){for(e=&quot;&quot;,r=parseInt(a.substr(0,2),16),n=2;a.length-n;n+=2)i=parseInt(a.substr(n,2),16)^r,e+=String.fromCharCode(i);e=document.createTextNode(e),c.parentNode.replaceChild(e,c)}}}catch(u){}}();/* ]]&gt; */&lt;/script&gt;\nFormat settings, CABAC                   : Yes\nFormat settings, ReFrames                : 3 frames\nCodec ID                                 : avc1\nCodec ID/Info                            : Advanced Video Coding\nDuration                                 : 3mn 47s\nDuration_LastFrame                       : -1ms\nBit rate                                 : 1 376 Kbps\nWidth                                    : 1 280 pixels\nHeight                                   : 720 pixels\nDisplay aspect ratio                     : 16:9\nFrame rate mode                          : Constant\nFrame rate                               : 23.976 fps\nColor space                              : YUV\nChroma subsampling                       : 4:2:0\nBit depth                                : 8 bits\nScan type                                : Progressive\nBits/(Pixel*Frame)                       : 0.062\nStream size                              : 37.3 MiB (91%)\nEncoded date                             : UTC 2014-04-08 19:47:04\nTagged date                              : UTC 2014-04-08 19:47:04\n\nAudio\nID                                       : 2\nFormat                                   : AAC\nFormat/Info                              : Advanced Audio Codec\nFormat profile                           : LC\nCodec ID                                 : 40\nDuration                                 : 3mn 47s\nBit rate mode                            : Variable\nBit rate                                 : 126 Kbps\nChannel(s)                               : 2 channels\nChannel positions                        : Front: L R\nSampling rate                            : 44.1 KHz\nCompression mode                         : Lossy\nStream size                              : 3.41 MiB (8%)\nEncoded date                             : UTC 2014-04-08 19:46:47\nTagged date                              : UTC 2014-04-08 19:46:47\n\nShared By Sbyky\n","torrent":{"xt":"urn:btih:36d0be4a6906311924a0bbc094748da7a173fd92","amp;dn":"Rico+Love+-+Bitches+Be+Like+%5BMusic+Video%5D+720p+%5BSbyky%5D","amp;tr":["udp%3A%2F%2Ftracker.openbittorrent.com%3A80","udp%3A%2F%2Fopen.demonii.com%3A1337","udp%3A%2F%2Ftracker.coppersurfer.tk%3A6969","udp%3A%2F%2Fexodus.desync.com%3A6969"],"infoHash":"36d0be4a6906311924a0bbc094748da7a173fd92","infoHashBuffer":{"type":"Buffer","data":[54,208,190,74,105,6,49,25,36,160,187,192,148,116,141,167,161,115,253,146]},"announce":[],"urlList":[]}}